<?xml version="1.0" encoding="utf-8"?>
<svg version="1.1" width="32" height="32" viewBox="0 0 32 32" xmlns="http://www.w3.org/2000/svg">
  <title>5</title>
  <path d="M 11.44 5.264 C 8.39 5.672 5.594 6.908 4.731 8.228 C 3.02 10.847 1.283 17.424 1.174 21.699 L 1.151 22.619 L 1.397 22.988 C 2.549 24.72 5.234 26.167 8.24 26.675 C 9.581 26.902 9.425 26.983 10.519 25.498 C 10.968 24.888 11.36 24.38 11.389 24.369 C 11.418 24.358 11.671 24.396 11.951 24.453 C 13.25 24.719 15.395 24.919 16.28 24.856 C 16.379 24.849 16.739 24.833 17.08 24.821 C 18.049 24.786 19.335 24.62 20.3 24.404 L 20.62 24.333 L 20.86 24.656 C 20.992 24.834 21.37 25.345 21.698 25.792 C 22.54 26.938 22.446 26.897 23.759 26.675 C 26.765 26.166 29.45 24.72 30.602 22.988 L 30.848 22.619 L 30.824 21.699 C 30.711 17.39 28.986 10.863 27.261 8.216 C 26.4 6.896 23.562 5.653 20.508 5.26 C 19.593 5.142 19.528 5.195 19.243 6.29 C 19.104 6.825 19.188 6.781 18.493 6.684 C 17.521 6.549 16.95 6.508 16 6.508 C 15.05 6.508 14.479 6.548 13.507 6.684 C 12.812 6.781 12.895 6.825 12.757 6.29 C 12.471 5.189 12.401 5.135 11.44 5.264 Z M 11.857 6.47 C 12.017 6.95 12.026 6.932 11.561 7.036 C 9.893 7.408 7.261 8.542 7.053 8.978 C 6.828 9.45 7.334 9.766 7.835 9.465 C 9.973 8.181 13.005 7.422 16 7.422 C 18.992 7.422 22.04 8.184 24.165 9.464 C 24.678 9.773 25.188 9.44 24.939 8.959 C 24.711 8.518 22.128 7.425 20.349 7.016 C 19.985 6.932 19.987 6.937 20.142 6.471 L 20.245 6.162 L 20.432 6.184 C 23.103 6.505 25.798 7.632 26.504 8.723 C 28.136 11.244 29.784 17.461 29.907 21.566 L 29.931 22.353 L 29.746 22.612 C 28.78 23.966 26.747 25.094 24.299 25.636 C 23.776 25.752 22.929 25.882 22.875 25.855 C 22.849 25.842 21.595 24.138 21.585 24.102 C 21.581 24.089 21.844 23.989 22.167 23.879 C 23.558 23.407 25.166 22.568 25.759 22.003 C 26.225 21.56 25.668 20.96 25.158 21.356 C 21.768 23.991 15.075 24.736 10.118 23.03 C 8.88 22.604 7.143 21.711 6.845 21.348 C 6.597 21.046 6.078 21.264 6.078 21.671 C 6.078 22.143 7.93 23.235 9.818 23.875 C 10.126 23.979 10.382 24.082 10.386 24.102 C 10.394 24.138 9.178 25.825 9.124 25.853 C 9.074 25.879 8.256 25.758 7.778 25.655 C 5.272 25.113 3.221 23.973 2.218 22.567 L 2.066 22.354 L 2.091 21.547 C 2.226 17.18 4.244 9.946 5.77 8.357 C 6.655 7.436 9.426 6.412 11.705 6.165 C 11.731 6.162 11.798 6.3 11.855 6.47 L 11.857 6.47 Z M 10.96 14.262 C 9.184 14.643 8.268 16.835 9.163 18.56 C 10.203 20.563 12.86 20.529 13.862 18.5 C 14.938 16.323 13.197 13.782 10.96 14.262 Z M 19.96 14.262 C 17.943 14.695 17.119 17.433 18.508 19.089 C 19.759 20.581 21.983 20.28 22.862 18.5 C 23.937 16.323 22.197 13.782 19.96 14.262 Z M 12.216 15.275 C 13.624 15.968 13.647 18.249 12.253 18.953 C 10.476 19.85 8.894 17.44 10.166 15.773 C 10.64 15.151 11.527 14.936 12.215 15.275 L 12.216 15.275 Z M 21.216 15.275 C 22.62 15.966 22.645 18.252 21.256 18.951 C 19.479 19.846 17.903 17.461 19.159 15.778 C 19.622 15.157 20.527 14.936 21.216 15.275 Z" style="fill: rgb(75, 0, 130);"/>
</svg>